
<svg width="600" height="800" viewBox="0 0 600 800" fill="none" xmlns="http://www.w3.org/2000/svg">
  <rect width="600" height="800" fill="white"/>
  <rect y="0" width="600" height="150" fill="#DC2626"/>
  <circle cx="100" cy="220" r="70" stroke="#DC2626" stroke-width="8"/>
  <rect x="200" y="80" width="350" height="40" rx="5" fill="white"/>
  <rect x="200" y="130" width="250" height="20" rx="5" fill="white" fill-opacity="0.7"/>
  <rect x="40" y="320" width="150" height="20" rx="5" fill="#DC2626"/>
  <rect x="40" y="350" width="250" height="10" rx="5" fill="#999"/>
  <rect x="40" y="370" width="230" height="10" rx="5" fill="#999"/>
  <rect x="40" y="390" width="270" height="10" rx="5" fill="#999"/>
  <rect x="40" y="430" width="150" height="20" rx="5" fill="#DC2626"/>
  <rect x="40" y="460" width="250" height="10" rx="5" fill="#999"/>
  <rect x="40" y="480" width="230" height="10" rx="5" fill="#999"/>
  <rect x="40" y="500" width="270" height="10" rx="5" fill="#999"/>
  <rect x="340" y="320" width="150" height="20" rx="5" fill="#DC2626"/>
  <rect x="340" y="350" width="220" height="10" rx="5" fill="#999"/>
  <rect x="340" y="370" width="200" height="10" rx="5" fill="#999"/>
  <rect x="340" y="390" width="240" height="10" rx="5" fill="#999"/>
  <rect x="340" y="430" width="150" height="20" rx="5" fill="#DC2626"/>
  <rect x="340" y="460" width="220" height="10" rx="5" fill="#999"/>
  <rect x="340" y="480" width="200" height="10" rx="5" fill="#999"/>
  <rect x="340" y="500" width="240" height="10" rx="5" fill="#999"/>
  <rect x="40" y="550" width="520" height="2" rx="1" fill="#DC2626"/>
  <rect x="40" y="570" width="520" height="10" rx="5" fill="#999"/>
  <rect x="40" y="590" width="520" height="10" rx="5" fill="#999"/>
  <rect x="40" y="610" width="520" height="10" rx="5" fill="#999"/>
</svg>
