
<svg width="600" height="800" viewBox="0 0 600 800" fill="none" xmlns="http://www.w3.org/2000/svg">
  <rect width="600" height="800" fill="white"/>
  <rect width="200" height="800" fill="#3B82F6"/>
  <circle cx="100" cy="100" r="60" fill="white"/>
  <rect x="40" y="200" width="120" height="10" rx="5" fill="white"/>
  <rect x="40" y="220" width="120" height="80" rx="5" fill="white" fill-opacity="0.7"/>
  <rect x="40" y="320" width="120" height="10" rx="5" fill="white"/>
  <rect x="40" y="340" width="120" height="80" rx="5" fill="white" fill-opacity="0.7"/>
  <rect x="40" y="440" width="120" height="10" rx="5" fill="white"/>
  <rect x="40" y="460" width="120" height="80" rx="5" fill="white" fill-opacity="0.7"/>
  <rect x="230" y="60" width="330" height="40" rx="5" fill="#333"/>
  <rect x="230" y="110" width="330" height="20" rx="5" fill="#666"/>
  <rect x="230" y="150" width="330" height="10" rx="5" fill="#999"/>
  <rect x="230" y="170" width="330" height="10" rx="5" fill="#999"/>
  <rect x="230" y="190" width="330" height="10" rx="5" fill="#999"/>
  <rect x="230" y="230" width="150" height="20" rx="5" fill="#3B82F6"/>
  <rect x="230" y="260" width="330" height="10" rx="5" fill="#999"/>
  <rect x="230" y="280" width="330" height="10" rx="5" fill="#999"/>
  <rect x="230" y="300" width="330" height="10" rx="5" fill="#999"/>
  <rect x="230" y="340" width="150" height="20" rx="5" fill="#3B82F6"/>
  <rect x="230" y="370" width="330" height="10" rx="5" fill="#999"/>
  <rect x="230" y="390" width="330" height="10" rx="5" fill="#999"/>
  <rect x="230" y="410" width="330" height="10" rx="5" fill="#999"/>
  <rect x="230" y="450" width="150" height="20" rx="5" fill="#3B82F6"/>
  <rect x="230" y="480" width="200" height="10" rx="5" fill="#999"/>
  <rect x="230" y="500" width="180" height="10" rx="5" fill="#999"/>
  <rect x="230" y="520" width="220" height="10" rx="5" fill="#999"/>
</svg>
