
<svg width="160" height="45" viewBox="0 0 160 45" fill="none" xmlns="http://www.w3.org/2000/svg">
  <path d="M10.5 32.5C10.5 37.5 13.5 42.5 21 42.5C28.5 42.5 31.5 37.5 31.5 32.5C31.5 27.5 28.5 22.5 21 22.5C13.5 22.5 10.5 27.5 10.5 32.5Z" fill="url(#paint0_linear)"/>
  <path d="M0 14.5C0 6.5 6 2 13.5 2C21 2 26 6.5 26.5 12.5C27 18.5 21 23 13.5 23C6 23 0 19 0 14.5Z" fill="url(#paint1_linear)"/>
  <path d="M16 14.5C16 6.5 22 2 29.5 2C37 2 42 6.5 42.5 12.5C43 18.5 37 23 29.5 23C22 23 16 19 16 14.5Z" fill="url(#paint2_linear)"/>
  <path d="M50 13.6H52.936V26H56.424V13.6H59.36V11.08H50V13.6ZM60.0294 15.064C60.0294 16.632 61.1574 17.832 62.8774 17.832C63.2294 17.832 63.5334 17.8 63.7894 17.736V15.192C63.6294 15.224 63.4854 15.24 63.2774 15.24C62.5414 15.24 62.0694 14.848 62.0694 14.112V11.08H63.7894V8.8H62.0694V6.44H59.6694V8.8H58.4934V11.08H59.6694V15.064H60.0294ZM72.8859 11.08V13.6H75.9179C75.4299 14.288 74.8939 14.848 74.3259 15.272L77.3899 16.392C78.5179 15.56 79.5339 14.4 80.2219 13.176L78.7339 11.08H72.8859ZM72.8859 11.08H69.3499V26H72.8859V11.08ZM81.5579 26H85.1259V8.8H81.5579V26ZM97.8251 13.128V15.816H94.3371V19.416H97.8251V22.12H94.3371V26H90.7851V11.08H99.8331V13.128H97.8251ZM103.752 11.08H107.32V20.872C107.32 21.784 107.816 22.296 108.728 22.296C109.336 22.296 109.992 22.008 110.568 21.4L111.688 24.104C110.84 25.08 109.608 26.24 107.512 26.24C105.416 26.24 103.752 24.568 103.752 21.912V11.08ZM115.589 14.768C115.589 13.464 116.677 12.328 118.197 12.328C119.717 12.328 120.837 13.464 120.837 14.768C120.837 16.072 119.717 17.224 118.197 17.224C116.677 17.224 115.589 16.072 115.589 14.768ZM112.677 14.768C112.677 17.752 114.981 19.992 118.197 19.992C121.429 19.992 123.749 17.752 123.749 14.768C123.749 11.768 121.429 9.56 118.197 9.56C114.981 9.56 112.677 11.768 112.677 14.768ZM122.629 26H126.197V17.32H122.629V26ZM115.877 26H119.445V17.32H115.877V26ZM140.178 11.08V13.6H137.098C137.586 14.288 138.122 14.848 138.69 15.272L135.626 16.392C134.498 15.56 133.482 14.4 132.794 13.176L134.282 11.08H140.178ZM140.178 11.08H143.714V26H140.178V11.08Z" fill="url(#paint3_linear)"/>
  <defs>
    <linearGradient id="paint0_linear" x1="21" y1="22.5" x2="21" y2="42.5" gradientUnits="userSpaceOnUse">
      <stop stop-color="#84CC16"/>
      <stop offset="0.5" stop-color="#EAB308"/>
      <stop offset="1" stop-color="#DC2626"/>
    </linearGradient>
    <linearGradient id="paint1_linear" x1="13.5" y1="2" x2="13.5" y2="23" gradientUnits="userSpaceOnUse">
      <stop stop-color="#84CC16"/>
      <stop offset="0.5" stop-color="#EAB308"/>
      <stop offset="1" stop-color="#DC2626"/>
    </linearGradient>
    <linearGradient id="paint2_linear" x1="29.5" y1="2" x2="29.5" y2="23" gradientUnits="userSpaceOnUse">
      <stop stop-color="#84CC16"/>
      <stop offset="0.5" stop-color="#EAB308"/>
      <stop offset="1" stop-color="#DC2626"/>
    </linearGradient>
    <linearGradient id="paint3_linear" x1="50" y1="16" x2="143.714" y2="16" gradientUnits="userSpaceOnUse">
      <stop stop-color="#84CC16"/>
      <stop offset="0.5" stop-color="#EAB308"/>
      <stop offset="1" stop-color="#DC2626"/>
    </linearGradient>
  </defs>
</svg>
