
<svg xmlns="http://www.w3.org/2000/svg" width="40" height="40" viewBox="0 0 40 40" fill="none">
  <rect width="40" height="40" rx="8" fill="url(#paint0_linear)" />
  <path d="M12 20.5C12 18.6 13.6 17 15.5 17H24.5C26.4 17 28 18.6 28 20.5V26.5C28 28.4 26.4 30 24.5 30H15.5C13.6 30 12 28.4 12 26.5V20.5Z" fill="white" fill-opacity="0.9"/>
  <path d="M14.5 12C14.5 11.1716 15.1716 10.5 16 10.5H24C24.8284 10.5 25.5 11.1716 25.5 12V16C25.5 16.8284 24.8284 17.5 24 17.5H16C15.1716 17.5 14.5 16.8284 14.5 16V12Z" fill="white" fill-opacity="0.6"/>
  <defs>
    <linearGradient id="paint0_linear" x1="0" y1="0" x2="40" y2="40" gradientUnits="userSpaceOnUse">
      <stop stop-color="#9B30FF"/>
      <stop offset="0.5" stop-color="#30D5C8"/>
      <stop offset="1" stop-color="#FF7F50"/>
    </linearGradient>
  </defs>
</svg>
